[Header]
FileType HTR
DataType HTRS
FileVersion 1
NumSegments 28
NumFrames 5
DataFrameRate 24
EulerRotationOrder ZYX
CalibrationUnits mm
RotationUnits Degrees
GlobalAxisofGravity Y
BoneLengthAxis Y
ScaleFactor 1.0
[SegmentNames&Hierarchy]
waist	GLOBAL
chest	waist
head	chest
joint2	chest
right_shoulder1	joint2
right_elbow1	right_shoulder1
right_wrist1	right_elbow1
right_hand1	right_wrist1
right_finger3	right_hand1
right_finger4	right_hand1
right_finger5	right_hand1
joint3	chest
right_shoulder2	joint3
right_elbow2	right_shoulder2
right_wrist2	right_elbow2
right_hand2	right_wrist2
right_finger6	right_hand2
right_finger7	right_hand2
right_finger8	right_hand2
Center_pelvis	waist
left_pelvs	Center_pelvis
left_leg	left_pelvs
left_knee	left_leg
left_foot	left_knee
right_pelvis	Center_pelvis
right_leg	right_pelvis
right_knee	right_leg
right_foot	right_knee
[BasePosition]
waist	0	0	0	179.9999991	0	91.33221985	1
chest	0	0	0	-2.307808268e-010	-1.984983424e-008	1.332219854	1
head	0	0	0	180	-1.481061187e-024	90	1
joint2	0	0	0	4.615476202e-010	-1.707085745e-006	90	1
right_shoulder1	0	0	0	1.916575325e-008	-1.983803253e-008	-88.02506599	1
right_elbow1	0	0	0	-180	-1.948815659e-008	-12.92899665	1
right_wrist1	0	0	0	3.256551172e-010	1.942478841e-008	1.920938916	1
right_hand1	0	0	0	136.2194085	85.17676588	-133.4832578	1
right_finger3	0	0	0	154.4596717	79.84057755	147.6247455	1
right_finger4	0	0	0	154.4596717	79.84057755	147.6247455	1
right_finger5	0	0	0	154.4596717	79.84057755	147.6247455	1
joint3	0	0	0	-180	-1.89575832e-022	90	1
right_shoulder2	0	0	0	6.774897105e-015	-7.012540931e-015	-88.02506599	1
right_elbow2	0	0	0	-180	-6.888863384e-015	-12.92899665	1
right_wrist2	0	0	0	-1.240805042e-012	-7.401196581e-011	1.920938916	1
right_hand2	0	0	0	136.2194085	85.17676588	-133.4832578	1
right_finger6	0	0	0	154.4596717	79.84057755	147.6247455	1
right_finger7	0	0	0	154.4596717	79.84057755	147.6247455	1
right_finger8	0	0	0	154.4596717	79.84057755	147.6247455	1
Center_pelvis	0	0	0	-180	-8.537716493e-007	89.87586122	1
left_pelvs	0	0	0	0	0	-1.456358634	1
left_leg	0	0	0	179.9999991	0	88.69804733	1
left_knee	0	0	0	-180	-7.863991589e-009	-2.076172838	1
left_foot	0	0	0	179.9999985	-3.055580289e-010	-90.77422016	1
right_pelvis	0	0	0	0	0	-2.39554958	1
right_leg	0	0	0	0	0	-87.75885638	1
right_knee	0	0	0	179.9999991	3.702652968e-022	-2.076172838	1
right_foot	0	0	0	180	-7.405305937e-025	-90.77422016	1
[waist]
1	0	-3.152148962	0	1.823863387	-13.80161572	1.340750337	1.0
2	0	-3.152148962	0	1.823863387	-13.80161572	1.340750337	1.0
3	0	-3.152148962	0	1.823863387	-13.80161572	1.340750337	1.0
4	0	-3.152148962	0	1.823863387	-13.80161572	1.340750337	1.0
5	0	-3.152148962	0	1.823863387	-13.80161572	1.340750337	1.0
[chest]
1	22.8176384	-0.5289952755	-13.18645668	21.55998802	29.87947083	-2.729702711	1.0
2	22.25156593	-0.5195350051	-12.89226723	18.33487129	29.49627495	-2.742526293	1.0
3	20.23080635	-0.485763818	-11.84207439	6.821888447	28.12834549	-2.788304329	1.0
4	19.32523537	-0.4706298113	-11.37144661	1.662529111	27.51532936	-2.808819056	1.0
5	21.07143593	-0.4998125136	-12.2789526	-9.948735237	28.69739914	-2.769260883	1.0
[head]
1	20.62318993	0.1433748305	1.492195129	-15.1518898	-15.50344753	2.692999363	1.0
2	20.62318993	0.1433748305	1.492195129	-14.3605938	-12.60077763	1.968827844	1.0
3	20.62318993	0.1433748305	1.492195129	-11.53583145	-2.238862276	-0.6163123846	1.0
4	20.62318993	0.1433748305	1.492195129	-10.26995945	2.404664278	-1.774801493	1.0
5	20.32449341	0.1704119444	1.410277128	-14.3497448	12.86506176	-2.296320915	1.0
[joint2]
1	-1.657010078	17.01290512	0.01287616603	13.9795866	-21.78150558	-5.277848244	1.0
2	-1.657010078	17.01290512	0.01287616603	9.000711441	-17.64311218	-4.869014263	1.0
3	-1.657010078	17.01290512	0.01287616603	-1.659205675	-8.782696724	-3.993689775	1.0
4	-1.657010078	17.01290512	0.01287616603	-13.4410944	1.010294557	-3.026235819	1.0
5	-1.657010078	17.01290512	0.01287616603	-23.84223366	9.655619621	-2.17215991	1.0
[right_shoulder1]
1	14.91590023	0.6211000085	0.9477797747	-4.282067299	5.538762093	-20.92097664	1.0
2	14.91590023	0.6211000085	0.9477797747	-3.907530308	2.775866032	-18.81247139	1.0
3	14.91590023	0.6211000085	0.9477797747	-2.570512772	-7.087091923	-11.28554726	1.0
4	14.91590023	0.6211000085	0.9477797747	-1.971350074	-11.50701809	-7.912477493	1.0
5	14.91590023	0.6211000085	0.9477797747	-0.9856750369	-21.74250984	-3.956238747	1.0
[right_elbow1]
1	-13.64346027	1.083028078	-0.5017899871	4.903916359	22.01850128	0.2303846031	1.0
2	-13.64346027	1.083028078	-0.5017899871	4.903916359	22.01850128	0.2303846031	1.0
3	-13.64346027	1.083028078	-0.5017899871	4.903916359	22.01850128	0.2303846031	1.0
4	-13.64346027	1.083028078	-0.5017899871	4.903916359	22.01850128	0.2303846031	1.0
5	-13.64346027	1.083028078	-0.5017899871	4.903916359	22.01850128	0.2303846031	1.0
[right_wrist1]
1	-11.07325459	0.004849368241	0.6145500541	4.236271858	28.15969086	9.082005501	1.0
2	-11.07325459	0.004849368241	0.6145500541	3.152779818	26.12111282	5.727361679	1.0
3	-11.07325459	0.004849368241	0.6145500541	-0.7150586247	18.84382439	-6.248009205	1.0
4	-11.07325459	0.004849368241	0.6145500541	-2.448368311	15.58262444	-11.6145792	1.0
5	-11.07325459	0.004849368241	0.6145500541	-6.113183975	18.02331161	-23.00478935	1.0
[right_hand1]
1	-7.870647907	-0.6475095749	0.1588415354	5.372437954	29.75944901	17.09375381	1.0
2	-7.870647907	-0.6475095749	0.1588415354	6.707690239	29.090168	17.57445145	1.0
3	-7.870647907	-0.6475095749	0.1588415354	11.47426033	26.70097542	19.29043961	1.0
4	-7.870647907	-0.6475095749	0.1588415354	13.610322	25.63029671	20.05943108	1.0
5	-7.870647907	-0.6475095749	0.1588415354	18.43466187	23.21214867	21.79621506	1.0
[right_finger3]
1	10.07661057	3.347557783	-1.489186764	-84.28975677	13.1826582	87.76701355	1.0
2	10.07661057	3.347557783	-1.489186764	-84.28975677	13.1826582	87.76701355	1.0
3	10.07661057	3.347557783	-1.489186764	-84.28975677	13.1826582	87.76701355	1.0
4	10.07661057	3.347557783	-1.489186764	-84.28975677	13.1826582	87.76701355	1.0
5	10.07661057	3.347557783	-1.489186764	-84.28975677	13.1826582	87.76701355	1.0
[right_finger4]
1	-1.201135993	3.376283169	11.27149582	-190.2575378	16.2514534	124.4265747	1.0
2	-1.201135993	3.376283169	11.27149582	-190.2575378	16.2514534	124.4265747	1.0
3	-1.201135993	3.376283169	11.27149582	-190.2575378	16.2514534	124.4265747	1.0
4	-1.201135993	3.376283169	11.27149582	-190.2575378	16.2514534	124.4265747	1.0
5	-1.201135993	3.376283169	11.27149582	-190.2575378	16.2514534	124.4265747	1.0
[right_finger5]
1	-6.853637218	4.493112087	-5.936321735	34.39846039	4.028532028	79.4876709	1.0
2	-6.853637218	4.493112087	-5.936321735	34.39846039	4.028532028	79.4876709	1.0
3	-6.853637218	4.493112087	-5.936321735	34.39846039	4.028532028	79.4876709	1.0
4	-6.853637218	4.493112087	-5.936321735	34.39846039	4.028532028	79.4876709	1.0
5	-6.853637218	4.493112087	-5.936321735	34.39846039	4.028532028	79.4876709	1.0
[joint3]
1	-1.657010078	-17.01289368	0.01287565939	-49.49729538	31.61519623	-34.15338898	1.0
2	-1.657010078	-17.01289368	0.01287565939	-43.42105484	27.12023354	-30.0726757	1.0
3	-1.657010078	-17.01289368	0.01287565939	-30.41163063	17.49638367	-21.33574677	1.0
4	-1.657010078	-17.01289368	0.01287565939	-16.03294945	6.859611988	-11.67924595	1.0
5	-1.657010078	-17.01289368	0.01287565939	-3.339342117	-2.5306108	-3.154412746	1.0
[right_shoulder2]
1	-14.91590023	-0.6211000085	-0.9477797747	16.02407265	-28.04923248	-31.41513252	1.0
2	-14.91590023	-0.6211000085	-0.9477797747	13.154006	-25.85308075	-27.4181366	1.0
3	-14.91590023	-0.6211000085	-0.9477797747	2.908474207	-18.01327705	-13.14970303	1.0
4	-14.91590023	-0.6211000085	-0.9477797747	-1.682896376	-14.49999714	-6.755534649	1.0
5	-14.91590023	-0.6211000085	-0.9477797747	-3.600849152	17.13510704	-12.59951591	1.0
[right_elbow2]
1	13.64346027	-1.083028078	0.5017899871	7.431889057	27.58552551	1.157387257	1.0
2	13.54902267	-0.9134930372	0.6608715057	8.080928802	31.97651863	2.116194725	1.0
3	13.21190262	-0.3082891405	1.228758812	10.3978653	47.65143967	5.538935661	1.0
4	13.06082726	-0.03707668185	1.483248353	11.4361639	54.67590332	7.072782516	1.0
5	12.7196207	0.5754621029	2.058018208	10.27961731	49.1845932	5.551778316	1.0
[right_wrist2]
1	11.37348366	-5.659013271	-0.5602906942	-9.777693748	20.46432304	-34.39454651	1.0
2	11.37348366	-5.659013271	-0.5602906942	-8.852777481	22.64325714	-31.45035362	1.0
3	11.37348366	-5.659013271	-0.5602906942	-5.551018238	30.42159081	-20.94020081	1.0
4	11.37348366	-5.659013271	-0.5602906942	-4.071388721	33.90732574	-16.2302475	1.0
5	11.37348366	-5.659013271	-0.5602906942	-0.034512043	27.48574066	-3.854913235	1.0
[right_hand2]
1	8.313048363	0.02588133886	-0.2132965624	23.25933266	20.79361916	23.53329659	1.0
2	8.313048363	0.02588133886	-0.2132965624	22.52216148	21.04862595	24.54091835	1.0
3	8.313048363	0.02588133886	-0.2132965624	19.89061546	21.95894623	28.13792419	1.0
4	8.313048363	0.02588133886	-0.2132965624	18.71133041	22.36689186	29.74986458	1.0
5	8.313048363	0.02588133886	-0.2132965624	12.04166508	26.06294632	23.42193222	1.0
[right_finger6]
1	-10.07661057	-3.347557783	1.489186764	-83.6856308	28.25859642	89.45962524	1.0
2	-10.07661057	-3.347557783	1.489186764	-83.6856308	28.25859642	89.45962524	1.0
3	-10.07661057	-3.347557783	1.489186764	-83.6856308	28.25859642	89.45962524	1.0
4	-10.07661057	-3.347557783	1.489186764	-83.6856308	28.25859642	89.45962524	1.0
5	-10.07661057	-3.347557783	1.489186764	-83.6856308	28.25859642	89.45962524	1.0
[right_finger7]
1	1.201135993	-3.376283169	-11.27149582	-196.815567	9.285179138	95.4122467	1.0
2	1.201135993	-3.376283169	-11.27149582	-196.815567	9.285179138	95.4122467	1.0
3	1.201135993	-3.376283169	-11.27149582	-196.815567	9.285179138	95.4122467	1.0
4	1.201135993	-3.376283169	-11.27149582	-196.815567	9.285179138	95.4122467	1.0
5	1.201135993	-3.376283169	-11.27149582	-196.815567	9.285179138	95.4122467	1.0
[right_finger8]
1	6.853637218	-4.493112087	5.936321735	33.30503464	-9.988982201	100.1356735	1.0
2	6.853637218	-4.493112087	5.936321735	33.30503464	-9.988982201	100.1356735	1.0
3	6.853637218	-4.493112087	5.936321735	33.30503464	-9.988982201	100.1356735	1.0
4	6.853637218	-4.493112087	5.936321735	33.30503464	-9.988982201	100.1356735	1.0
5	6.853637218	-4.493112087	5.936321735	33.30503464	-9.988982201	100.1356735	1.0
[Center_pelvis]
1	-5.616972446	-0.3766000271	2.04698658	0	0	0	1.0
2	-5.616972446	-0.3766000271	2.04698658	0	0	0	1.0
3	-5.616972446	-0.3766000271	2.04698658	0	0	0	1.0
4	-5.616972446	-0.3766000271	2.04698658	0	0	0	1.0
5	-5.616972446	-0.3766000271	2.04698658	0	0	0	1.0
[left_pelvs]
1	11.10305214	-2.287746906	-0.6499429941	-26.3245182	0	0	1.0
2	11.100914	-1.919505119	-0.5595321059	-22.3041954	-0.06735438854	-2.476192713	1.0
3	11.0932827	-0.6049593687	-0.2367842346	-7.952495098	-0.3077953458	-11.31567955	1.0
4	11.08986378	-0.01586683653	-0.09214995801	-1.521010518	-0.4155451059	-15.27695274	1.0
5	11.08277225	1.205842018	0.2078045905	13.46365929	-0.207772553	-7.638476372	1.0
[left_leg]
1	8.450808053e-008	-5.682914734	0.3641465604	0	-38.88279724	0	1.0
2	8.450808053e-008	-5.682914734	0.3641465604	0	-30.25630951	-2.760956049	1.0
3	8.450808053e-008	-5.682914734	0.3641465604	0	0.538439095	-12.61698723	1.0
4	8.450808053e-008	-5.682914734	0.3641465604	0	14.33861065	-17.03380966	1.0
5	8.450808053e-008	-5.682914734	0.3641465604	0	26.60542679	-8.516904831	1.0
[left_knee]
1	-10.69747543	0.03457061574	-6.811455844e-009	37.05981445	-40.4884758	-5.76624918	1.0
2	-10.69747543	0.03457061574	-6.811455844e-009	31.05290794	-33.92582703	-4.831616402	1.0
3	-10.69747543	0.03457061574	-6.811455844e-009	9.609513283	-10.49855614	-1.495173216	1.0
4	-10.69747543	0.03457061574	-6.811455844e-009	0	0	0	1.0
5	-10.69747543	0.03457061574	-6.811455844e-009	0	-2.135499954	0	1.0
[left_foot]
1	-14.54718971	-0.01193539705	1.933258442e-009	-10.61420059	31.93104172	-11.63099003	1.0
2	-14.54718971	-0.01193539705	1.933258442e-009	-8.893778801	26.75544167	-9.74575901	1.0
3	-14.54718971	-0.01193539705	1.933258442e-009	-2.752234459	8.279635429	-3.015885353	1.0
4	-14.54718971	-0.01193539705	1.933258442e-009	0	0	0	1.0
5	-14.54718971	-0.01193539705	1.933258442e-009	5.775499821	0	0	1.0
[right_pelvis]
1	-10.59864998	2.470934868	0.7059156299	35.55492401	0	0	1.0
2	-10.59674454	2.142807722	0.6253537536	31.69881248	-0.006027192809	-2.586262941	1.0
3	-10.58994484	0.9714635611	0.3377646804	17.93329811	-0.02754300088	-11.81867695	1.0
4	-10.5868988	0.4465443194	0.2088862956	11.76450253	-0.03718496487	-15.95603561	1.0
5	-10.58232117	-0.3420762718	0.01526380889	-7.395003319	-0.01859248243	-7.978017807	1.0
[right_leg]
1	0.09169664979	-5.593489647	0.06310817599	0	37.48569107	0	1.0
2	0.09169664979	-5.593489647	0.06310817599	0	34.02573013	0	1.0
3	0.09169664979	-5.593489647	0.06310817599	0	21.67440224	0	1.0
4	0.09169664979	-5.593489647	0.06310817599	0	16.13935471	0	1.0
5	0.09169664979	-5.593489647	0.06310817599	0	-12.76025963	0	1.0
[right_knee]
1	10.69750977	-0.03459574655	-4.718447855e-015	0	-4.271131039	0	1.0
2	10.69750977	-0.03459574655	-4.718447855e-015	6.05371809	-13.81281567	-4.965892792	1.0
3	10.69750977	-0.03459574655	-4.718447855e-015	27.66421509	-47.87461853	-22.69308281	1.0
4	10.69750977	-0.03459574655	-4.718447855e-015	37.34861374	-63.13887024	-30.63723946	1.0
5	10.69750977	-0.03459574655	-4.718447855e-015	37.20430756	-51.8134346	-18.2016201	1.0
[right_foot]
1	14.54718685	0.01191107463	1.774880243e-010	11.55060196	0	0	1.0
2	14.54718685	0.01191107463	1.774880243e-010	5.519039631	2.383686066	-0.8682675362	1.0
3	14.54718685	0.01191107463	1.774880243e-010	-16.01236725	10.89294243	-3.967799664	1.0
4	14.54718685	0.01191107463	1.774880243e-010	-25.66132164	14.70622921	-5.356805325	1.0
5	14.54718685	0.01191107463	1.774880243e-010	-18.13766098	23.31861496	-8.493902206	1.0
[EndOfFile]
